<svg width="110" height="110" viewBox="0 0 110 110" fill="none" xmlns="http://www.w3.org/2000/svg">
<path d="M55 110C85.3757 110 110 85.3757 110 55C110 24.6243 85.3757 0 55 0C24.6243 0 0 24.6243 0 55C0 85.3757 24.6243 110 55 110Z" fill="white"/>
<path fill-rule="evenodd" clip-rule="evenodd" d="M54.123 41.6625L53.9274 41.6365L53.7395 41.6213L53.5654 41.6014L53.4126 41.5861L53.272 41.5754L53.159 41.5678L53.0551 41.5617H52.994L52.9573 41.5678L52.9206 41.5754H52.9008L52.8855 41.5601L52.8824 41.5418V41.5006L52.8855 41.4501L52.9008 41.3585L52.916 41.2821V41.1507L52.9206 41.0972L52.9237 41.0636V41.0331L52.9206 41.0224L52.9099 41.0117L52.8855 41.0056H52.8427L52.7862 41.0117L52.7159 41.0224L52.6304 41.0331L52.5433 41.0407L52.4409 41.0499L52.3401 41.0682L52.2423 41.0835H52.0208L51.8313 41.1018H51.6281L51.5731 41.0881L51.5579 41.0758L51.5533 41.0422V39.8108L51.5456 39.7833L51.5365 39.7528H51.5242L51.5059 39.7772L51.4708 39.8475L51.4524 39.8811L51.4341 39.9117L51.3058 40.0614L51.153 40.202L51.0002 40.3456L50.8474 40.4861L50.7894 40.5274L50.7344 40.5839L50.6885 40.6343L50.658 40.6878L50.6244 40.7535L50.5908 40.8085L50.5633 40.865L50.5617 40.949L50.5312 41.0743L50.4884 41.1904L50.4013 41.4043L50.273 41.6121L50.2042 41.7129L50.1187 41.8199L49.9094 42.0032L49.7001 42.1376L49.4938 42.2568L49.2876 42.3561L49.0844 42.4524L48.8858 42.5471L48.6902 42.6754L48.5924 42.7518L48.4962 42.8343L48.5069 42.8801L48.5115 42.9413L48.5069 43.0177L48.4962 43.1093L48.484 43.2101L48.4534 43.3079L48.4229 43.4149L48.3724 43.5188L48.2655 43.7372L48.1326 43.9465L47.9798 44.139L47.8117 44.3346L47.6162 44.579L47.4176 44.8036L47.2067 45.0175L46.9867 45.2314L46.8844 45.3353L46.811 45.4361L46.7499 45.5385L46.7347 45.5843L46.7331 45.6256L46.8431 45.6653L46.9394 45.7188L47.0081 45.7799L47.0585 45.841L47.0967 45.9143L47.112 45.9907L47.1212 46.0671L47.112 46.1511L47.0922 46.2382L47.0555 46.3238L46.9592 46.4918L46.8431 46.6568L46.701 46.7989L46.5941 47.6025L46.449 48.4183L46.2855 49.2433L46.093 50.0561L45.8745 50.872L45.6408 51.6771L45.3902 52.441L45.2588 52.826L45.1244 53.2003L45.0724 53.6556L45.0297 54.1139L44.9991 54.5783L44.9838 55.0458V55.7364L44.993 56.4239L45.0052 56.6301L45.0266 56.8226L45.0541 57.0258L45.0847 57.2245L45.1641 57.5025L45.2527 57.7775L45.3597 58.0342L45.4849 58.2786L45.6331 58.5047L45.7981 58.7232L45.9967 58.9172L46.1037 59.0089L46.2198 59.0945L46.4108 59.2625L46.5758 59.4199L46.7209 59.5879L46.8492 59.7483L46.9654 59.9317L47.0784 60.1272L47.1319 60.2433L47.2235 60.497L47.2663 60.639L47.3183 60.8758L47.3794 61.0806L47.4619 61.2715L47.5627 61.4442L47.6849 61.597L47.8255 61.7452L47.9935 61.8933L48.1922 62.0354L48.5038 62.2539L48.6642 62.37L48.8354 62.4983L49.008 62.6557L49.1806 62.8329L49.2723 62.9338L49.3609 63.0407L49.4572 63.1553L49.5488 63.2882L49.5947 63.4196L49.6405 63.5342L49.7581 63.7603L49.8895 63.9513L50.0392 64.104L50.2149 64.2599L50.4135 64.3882L50.6473 64.5104L50.9116 64.6296L51.1255 64.7335L51.344 64.8251L51.7748 65.0238L51.9734 65.1277L52.172 65.2499L52.3492 65.3767L52.5097 65.5325L52.5708 65.7433L52.5952 65.8381L52.6258 65.9297L52.664 66.0153L52.719 66.0993L52.774 66.1665L52.8412 66.2338L52.9329 66.3208L53.0245 66.3942L53.1315 66.4645L53.2384 66.5179L53.356 66.5531L53.4676 66.5897L53.5944 66.6111L53.7105 66.6142L53.8449 66.6111L53.9779 66.5897L54.1001 66.5622L54.2223 66.5164L54.3399 66.4492L54.4438 66.382L54.5416 66.2903L54.6302 66.194L54.699 66.084L54.7647 65.9618L54.8151 65.8304L54.8426 65.6929L54.8533 65.5401V65.3843L54.8288 65.2163L54.7906 65.0406L54.7295 64.9183L54.6562 64.8114L54.589 64.7045L54.5126 64.6158L54.4255 64.5303L54.3384 64.4692L54.2422 64.4081L54.1428 64.3592L54.0466 64.3195L53.9397 64.2996L53.8327 64.292L53.7197 64.2843L53.6051 64.295L53.4905 64.3133L53.3622 64.3485L53.2445 64.3943L53.272 64.434L53.298 64.4845L53.3347 64.541L53.3698 64.6174L53.4523 64.7595L53.5104 64.9168L53.5317 64.952L53.5394 64.9795L53.5317 64.9993L53.5165 65.007L53.4981 65.0146L53.4722 65.007L53.4416 64.9993L53.4049 64.9795L53.3438 64.9275L53.2735 64.8511L53.2002 64.7595L53.1238 64.6495L53.0474 64.5318L52.971 64.405L52.8213 64.1331L52.6273 63.7313L52.5723 63.6136L52.5234 63.5067L52.473 63.415L52.4363 63.3417L52.4149 63.2958L52.3233 63.1278L52.2285 62.9689L52.1185 62.8283L51.9902 62.6969L51.8909 62.6206L51.7748 62.564L51.5456 62.4571L51.5227 62.4296L51.4967 62.3792L51.4555 62.3272L51.4127 62.26L51.3058 62.1011L51.1942 61.9407L51.0904 61.7574L50.9987 61.6046L50.9635 61.5313L50.9376 61.4701L50.9147 61.4167L50.9085 61.3754L51.2263 61.5251L51.5579 61.6657L51.9001 61.7925L52.2545 61.8995L52.6059 61.9911L52.9665 62.0706L53.3331 62.1317L53.6922 62.1745L53.7594 62.2906L53.8235 62.3899L53.9412 62.5732L54.0573 62.7336L54.1765 62.8788L54.3201 63.0224L54.4835 63.1721L54.5798 63.2454L54.6867 63.3295L54.8059 63.4165L54.9251 63.5174L55.0779 63.6442L55.2184 63.7542L55.4353 63.9726L55.527 64.0826L55.6187 64.2094L55.7058 64.3576L55.7974 64.5257L55.883 64.6938L55.9701 64.8511L56.077 64.9993L56.1947 65.1399L56.3322 65.285L56.4513 65.4378L56.5583 65.6135L56.5965 65.7082L56.6392 65.8197L56.8684 66.5103L57.0029 66.8556L57.1526 67.184H57.3558L57.5422 67.1733L57.7331 67.1428L57.9165 67.0924L58.0998 67.0236L58.2801 66.932L58.4695 66.8174L58.659 66.6844L58.6345 66.8036L58.6147 66.9075V67.0221L58.6299 67.1413L58.6483 67.1718L58.6849 67.1963L58.7353 67.2115L58.8148 67.2299L58.8988 67.239L58.9951 67.2467L59.209 67.2543H59.4305L59.6551 67.239L59.8644 67.2207L59.9408 67.2161L60.0233 67.2054L60.3533 68.9165L60.7047 68.9104L61.0224 68.8829L61.328 68.8371L61.6335 68.7607L61.7772 68.7149L61.9177 68.6538L62.0552 68.585L62.1897 68.4995L62.3272 68.4124L62.4692 68.31L62.6067 68.1939L62.7595 68.0671L62.3776 67.4208L61.9773 66.7883L61.9085 66.6432L61.8413 66.4996L61.7405 66.2246L61.6488 65.9496L61.603 65.7968L61.5083 65.6945L61.3937 65.447L61.3173 65.3125L61.2302 65.175L61.1233 65.0192L61.0377 64.874L60.9537 64.7472L60.8819 64.6326L60.8009 64.5074L60.7306 64.4004L60.6756 64.2935L60.6344 64.1911L60.5885 64.0918L60.558 63.9726L60.5274 63.8443L60.4969 63.6915L60.3976 63.1568L60.2524 62.4647L60.2127 62.3165L60.1745 62.1897L60.1287 62.0675L60.0065 61.817L59.9301 61.6856L59.8598 61.545L59.6948 61.2425L59.5512 60.937L59.4259 60.6467L59.3342 60.361L59.2578 60.0676L59.2044 59.7514L59.1738 59.426L59.1662 59.2503V59.0731L59.1158 58.7797L59.0745 58.4803L58.9401 57.915L58.7873 57.3467L58.688 57.0686L58.5963 56.7829L58.4741 56.5079L58.3519 56.2406L58.2678 56.016L58.2037 55.7899L58.1655 55.5668L58.1456 55.3315L58.1716 55.0535L58.1991 54.7815L58.2022 54.5279V54.2789L58.1991 54.0345L58.1716 53.7976L58.1456 53.5685L58.109 53.3424L58.0066 52.8932L57.8813 52.4379L57.808 52.2026L57.724 51.9674L57.6399 51.7168L57.5452 51.4632L57.5972 51.4174L57.669 51.3761L57.7301 51.3456L57.811 51.3257L57.9699 51.289L58.1533 51.2783L58.3626 51.289L58.5795 51.3135L58.8194 51.3471L59.0822 51.3975L59.3495 51.4495L59.6367 51.5106L59.927 51.5686L60.2448 51.6251L60.561 51.6771L60.8972 51.7168L61.2333 51.7474L61.5847 51.7657L61.7649 51.7504L61.9559 51.7275L62.1423 51.6863L62.3363 51.6404L62.4891 51.564L62.6465 51.4693L62.7152 51.4113L62.787 51.3456L62.839 51.2722L62.8848 51.1958L62.7427 51.1775H62.5258L62.4692 51.1653L62.4265 51.1531L62.3913 51.1286L62.376 51.1072L62.3608 51.0721L62.3485 50.9881V50.9606L62.3608 50.93L62.376 50.9056L62.4066 50.8781L62.4983 50.8292L62.6098 50.7879L62.7549 50.7528L62.9138 50.7115L63.0926 50.6749L63.2851 50.6413L63.6976 50.5496L64.1101 50.4488L64.2995 50.3907L64.4798 50.3235L64.6433 50.2471L64.7899 50.1554L64.9015 50.0729L64.9992 49.9858L65.0405 49.9324L65.071 49.8835L65.0924 49.8376L65.1031 49.7964H64.9916L64.8847 49.7811L64.793 49.775L64.7135 49.7597L64.6402 49.7261L64.5974 49.6925L64.5699 49.6467V49.6528L64.5852 49.6222L64.6127 49.5993L64.6433 49.5688L64.6922 49.5458L64.7533 49.5153L64.8877 49.4664L65.0405 49.4236L65.2177 49.3747L65.589 49.2556L65.7754 49.1853L65.9388 49.1089L66.0947 49.0218L66.1802 48.9454L66.2826 48.8538L66.3742 48.7468L66.4048 48.6949L66.4247 48.6429L66.2841 48.6628L66.1405 48.6811L65.9969 48.6964L65.8517 48.7056L65.3934 48.7361L64.9091 48.759L64.2674 48.7713L63.6258 48.7651L62.981 48.7468L62.3394 48.7239L61.056 48.6628L59.7773 48.6047L59.487 48.5986L59.2013 48.6047L58.908 48.62L58.633 48.6445L58.3488 48.6781L58.0585 48.727L57.7759 48.785L57.478 48.8614L57.1572 48.9683L56.8333 49.086L56.6698 49.1593L56.491 49.2357L56.3077 49.3121L56.1137 49.4038L56.0144 49.4465L55.938 49.474L55.8723 49.4924L55.8066 49.5031H55.7501L55.6783 49.4924L55.5866 49.474L55.4797 49.4511L55.1741 49.3595L54.9999 49.2861L54.8227 49.2464L54.6241 49.2617L54.4102 49.2815L54.1902 49.3167L53.9687 49.3595L53.5149 49.4297L53.2858 49.4511H53.0688L52.9802 49.4481L52.9252 49.4328L52.8885 49.4175L52.8702 49.3778V49.3365L52.8748 49.2754L52.8901 49.1165L52.9176 48.3297L52.9726 47.5353L53.0917 45.9586V45.8883L53.1162 45.8349L53.1315 45.8165L53.159 45.7982L53.2048 45.789L53.2629 45.7814L53.4798 45.7722L53.6967 45.7539L53.903 45.7233L54.1062 45.6729L54.2177 45.6363L54.3338 45.5874L54.5554 45.4651L54.7723 45.3276L54.9862 45.2115L55.3834 45.1749L55.7883 45.1535L56.2008 45.1382L56.6209 45.1321L56.7477 45.2146L56.8699 45.2833L56.9876 45.3399L57.064 45.3551L57.1449 45.3628L57.2565 45.3551L57.3634 45.3246L57.4581 45.2895L57.5391 45.2283L57.6155 45.1611L57.6735 45.0771L57.7148 44.9824L57.7423 44.88L57.8462 44.854L57.9485 44.8082L58.031 44.7501L58.0922 44.6799L58.1227 44.6035V44.5699L58.1151 44.5332L58.0922 44.4996L58.0616 44.469L58.0249 44.4385L57.9638 44.414L57.8477 44.3988L57.7163 44.3926H57.1694L57.0624 44.385L56.986 44.3728L56.8898 44.3468L56.8165 44.3163L56.7645 44.2704L56.734 44.2338L56.7217 44.1879L56.7279 44.1345L56.7477 44.0856L56.7783 44.0397L56.8165 43.9908L56.8623 43.9511L56.9845 43.8808L57.038 43.8503L57.1037 43.8396L57.1678 43.8243L57.2229 43.832L57.4169 43.806L57.6369 43.7846L57.8722 43.7586L58.1166 43.7281L58.2587 43.7158L58.3855 43.6853L58.4879 43.6425L58.5184 43.615L58.5551 43.5783L58.578 43.5447L58.5994 43.4989V43.3965L58.5841 43.3308L58.5597 43.2697L58.526 43.1979L58.4802 43.1215L58.4115 43.0681L58.3626 43.0253L58.2663 42.9336L58.2006 42.8358L58.1762 42.7747L58.1579 42.7106L58.0922 42.4967L58.0585 42.3943L58.0127 42.3026L57.9363 42.2201L57.8905 42.1789L57.8386 42.1422L57.7729 42.1056L57.6965 42.0811L57.6079 42.0567L57.5101 42.0322L57.1281 42.0078L56.7385 41.9803L55.9349 41.9039L55.1298 41.8061L54.3247 41.6885L54.1199 41.6625H54.123ZM51.0904 49.7719L51.0965 49.4114L51.1179 49.0371L51.1331 48.6582L51.1942 47.8882L51.2599 47.1243L51.2874 46.7638L51.321 46.42L51.3455 46.0915L51.376 45.7829L51.399 45.4988L51.4081 45.2421L51.4387 45.207L51.4509 45.1718V45.1214L51.4585 45.0939L51.4738 45.0786L51.5197 45.0664L51.5548 45.0603L51.6037 45.0526L51.7488 45.1061L51.8741 45.1703L51.9841 45.2314L52.0651 45.3017L52.1369 45.3781L52.1934 45.4545L52.2912 45.6301L52.3263 45.7065L52.3477 45.7768L52.363 45.8379V45.896L52.3477 46.0029L52.3172 46.1099L52.1919 46.5315L52.0926 46.944L51.9245 47.7507L51.8298 48.261L51.7427 48.7865L51.6663 49.306L51.596 49.8147L51.5502 50.1019L51.512 50.3831L51.4922 50.6382L51.4616 50.8796L51.4463 51.0324L51.431 51.176L51.4234 51.2982L51.4188 51.4128L51.4066 51.535L51.3974 51.6618L51.3669 51.8024L51.3608 51.8329L51.3455 51.8513L51.3348 51.8543L51.3195 51.8451L51.3042 51.8146L51.289 51.7688L51.266 51.7031L51.2401 51.6175L51.2141 51.5029L51.1759 51.3425L51.1499 51.1592L51.124 50.7543L51.101 50.4396L51.0888 50.1035V49.7521L51.0904 49.7719ZM50.907 62.4983L50.9773 62.5747L51.0445 62.645L51.0949 62.6939L51.153 62.7626L51.1942 62.836L51.2294 62.9017L51.2569 62.9628L51.2722 63.0147V63.0606L51.2676 63.1095L51.2523 63.1492L51.1942 63.2195L51.1515 63.2408L51.098 63.2653L50.9727 63.3004L50.8199 63.3249L50.5908 63.0086L50.1095 62.3257L49.8605 61.982L49.5962 61.6458L49.3212 61.3296L49.1791 61.1814L49.0263 61.0408L48.8812 60.914L48.736 60.7979L48.649 60.7368L48.5726 60.6833L48.5084 60.6268L48.4626 60.5779L48.4274 60.526L48.3999 60.4725V60.416L48.4274 60.3579L48.4885 60.2754L48.5542 60.199L48.6184 60.1227L48.6795 60.0707L48.7834 59.9943L48.8904 59.9363L48.9942 59.8996L49.1012 59.8843H49.2005L49.2998 59.8996L49.4022 59.9363L49.4938 59.9821L49.5855 60.0432L49.6726 60.1196L49.749 60.2113L49.8223 60.3121L49.891 60.4282L49.9491 60.5504L50.001 60.6788L50.0469 60.8193L50.0774 60.9232L50.1187 61.05L50.1706 61.1814L50.2241 61.3189L50.3586 61.6046L50.5067 61.8842L50.6626 62.1546L50.739 62.2738L50.8184 62.3899L50.8902 62.4907L50.907 62.4983ZM51.8451 58.3214L51.8328 58.3703L51.8145 58.41L51.7809 58.4513L51.7351 58.494L51.674 58.5353L51.6067 58.572L51.5151 58.5995L51.4204 58.6239L51.3165 58.6468L51.1942 58.659L51.1484 58.6468L51.0873 58.6346L51.0231 58.6086L50.9422 58.5933L50.768 58.5445L50.5724 58.4879L50.3738 58.436L50.1905 58.3902L50.1065 58.3749L50.0301 58.3596L49.969 58.3351L49.9124 58.326L49.7902 58.3168H49.6711L49.4449 58.326L49.1088 58.352L48.982 58.3428L48.6612 58.1992L48.3785 58.0464L48.2319 57.97L48.073 57.8661L47.8897 57.7561L47.7873 57.6904L47.6773 57.6217V57.6156L47.6574 57.585L47.6269 57.5208L47.5917 57.4353L47.5535 57.3283L47.5077 57.2031L47.4619 57.0763L47.416 56.9265L47.3244 56.624L47.248 56.3276L47.2174 56.1947L47.196 56.0695L47.1808 55.9594V55.8678L47.2724 55.8021L47.3641 55.7532L47.4619 55.7104L47.5581 55.6845L47.6529 55.6661L47.7506 55.6539L47.9431 55.6615L48.0959 55.7776L48.2762 55.9106L48.4565 56.0511L49.0676 56.5217L49.474 56.8486V56.9556L49.4892 57.0533L49.5045 57.1374L49.5351 57.2168L49.5702 57.2825L49.6099 57.3345L49.6604 57.3849L49.7154 57.4246L49.8345 57.4826L49.969 57.5132L50.1065 57.5208L50.244 57.5132L50.6335 57.6904L51.0308 57.8585L51.2217 57.9349L51.3944 58.0036L51.5502 58.0617L51.7335 58.1396L51.7717 58.1732L51.8099 58.2083L51.8313 58.2435L51.8435 58.2832V58.326L51.8451 58.3214ZM54.2238 56.0511L54.1383 56.1275L53.9916 56.2833L53.8633 56.4163L53.7563 56.5415L53.654 56.6607L53.5623 56.7829L53.3912 57.0274L53.3423 57.1649L53.2919 57.281L53.2537 57.3757L53.2048 57.4521L53.1681 57.5208L53.1254 57.5728L53.0826 57.6186L53.0367 57.6492L52.9267 57.695L52.8656 57.7133L52.7892 57.7286L52.7083 57.7408L52.6135 57.75L52.5097 57.7653L52.3874 57.7836L52.334 57.7256L52.2881 57.669L52.227 57.5651L52.2056 57.5132L52.1903 57.4521L52.1842 57.391L52.1903 57.3146L52.3095 57.2749L52.4119 57.2321L52.5005 57.1924L52.5738 57.1358L52.641 57.0839L52.6945 57.0304L52.7404 56.9739L52.7801 56.9128L52.8259 56.7906L52.8565 56.6622L52.8641 56.5247L52.8565 56.3811L52.7892 56.2283L52.7128 56.0863L52.6242 55.961L52.5234 55.8601L52.4042 55.7654L52.282 55.689L52.0024 55.5454L51.9749 55.4935L51.9444 55.4232L51.8787 55.2643L51.8298 55.081L51.8176 54.9863L51.8237 54.8946L51.9001 54.7938L52.0009 54.7021L52.1124 54.641L52.2392 54.5906L52.4455 54.5814L52.6624 54.589L52.8916 54.6043L53.1238 54.6318L53.3469 54.6746L53.5577 54.7357L53.7502 54.8029L53.8388 54.8457L53.9183 54.8946L54.0023 55.0672L54.0726 55.2093L54.1337 55.3377L54.1841 55.4415L54.2192 55.5424L54.2498 55.6417L54.288 55.8174V55.8433L54.2926 55.8938L54.3048 55.9396L54.3201 55.9824L54.2253 56.0695L54.2238 56.0511ZM58.5734 65.4928L58.3381 65.3278L58.1242 65.1628L57.9363 64.9871L57.7591 64.8083L57.6185 64.6326L57.5055 64.4585L57.4215 64.2751L57.3955 64.1804L57.3741 64.0857L57.1801 63.9543L57.0074 63.8229L56.8547 63.7053L56.7095 63.58L56.5797 63.4578L56.4605 63.3325L56.349 63.2103L56.2542 63.0758L56.1595 62.9322L56.074 62.7871L55.9945 62.6251L55.9151 62.4479L55.8387 62.2615L55.7699 62.0599L55.689 61.8338L55.6065 61.5893L55.5347 61.464L55.4506 61.3663L55.359 61.2746L55.2566 61.2013L55.1497 61.1371L55.0458 61.0851L54.8273 60.9904L54.7204 60.9446L54.6241 60.8881L54.5355 60.827L54.456 60.7658L54.3949 60.6818L54.3522 60.5871L54.3369 60.4771V60.3396L54.3827 60.1807L54.4469 60.031L54.5309 59.8828L54.6379 59.7346L54.7219 59.6353L54.8899 59.4672L54.9663 59.4061L55.0335 59.3603L55.1038 59.3251L55.171 59.2976L55.2291 59.2824H55.2933L55.3467 59.29L55.4109 59.3083L55.4598 59.3328L55.5667 59.4092L55.6676 59.5085L55.7715 59.6353L55.8677 59.7758L55.967 59.9363L56.0801 60.0936L56.1962 60.2678L56.3215 60.4328L56.4666 60.5932L56.6163 60.746L56.7431 60.8407L56.8654 60.9324L56.9616 61.0317L57.0609 61.1233L57.229 61.3143L57.3665 61.5068L57.4734 61.7024L57.562 61.901L57.6384 62.0996L57.7026 62.3028L57.8141 62.7153L57.866 62.9292L57.9302 63.1431L58.0066 63.3615L58.1059 63.5754L58.219 63.8015L58.3565 64.0307L58.4267 64.2293L58.494 64.4019L58.5398 64.57L58.581 64.7304L58.6055 64.8924L58.6208 65.0604L58.6284 65.259L58.6223 65.4775L58.5872 65.4882L58.5734 65.4928ZM59.8873 64.8053H59.9179L59.982 64.8389L60.0584 64.897L60.1455 64.981L60.2341 65.0833L60.3303 65.1995L60.4281 65.337L60.5244 65.4744L60.7138 65.7586L60.8055 65.8992L60.8819 66.0321L60.943 66.1497L61.0041 66.246L61.0454 66.3224L61.0759 66.3835L61.1065 66.466L61.1309 66.5531L61.137 66.6356L61.1217 66.712L61.0851 66.7853L61.0148 66.8586L60.9185 66.9197L60.8024 66.9961L60.671 67.0542L60.529 67.1061L60.3762 67.1458L60.2127 67.181L60.1822 66.9442L60.1516 66.7104L60.1287 66.4965L60.1027 66.2933L60.063 65.9267L60.011 65.5646L59.8888 65.5722L59.707 65.589L59.6765 65.5814L59.6459 65.5661L59.6398 65.4653L59.6459 65.3553L59.6535 65.2361L59.6765 65.1261L59.707 65.0192L59.7422 64.9214L59.7941 64.8526L59.8552 64.8068H59.8766L59.8873 64.8053ZM57.3787 58.6101L57.4459 58.6438L57.5987 58.7385L57.7637 58.8607L57.9363 59.0043L58.1074 59.1693L58.2785 59.3679L58.4344 59.5742L58.4527 59.6658L58.468 59.7651V59.976L58.4619 60.167L58.4741 60.2632L58.5001 60.3503L58.6009 60.5947L58.6972 60.8193L58.9905 61.4396L59.0669 61.6413L59.1585 61.8551L59.2166 61.9728L59.2777 62.092L59.319 62.1638L59.3648 62.2157L59.4656 62.3104L59.5603 62.3975L59.6108 62.451L59.6413 62.5121L59.6749 62.6114L59.7055 62.7153L59.7544 62.9368L59.7956 63.1706L59.814 63.2806L59.8216 63.3814L59.788 63.4532L59.7422 63.5296L59.6902 63.5999L59.6337 63.661L59.5634 63.6732H59.4916L59.4152 63.6656L59.3235 63.6732L59.1616 63.4975L59.0272 63.3142L58.9004 63.1156L58.7842 62.9124L58.7537 62.8176L58.746 62.726L58.7537 62.564L58.7644 62.396L58.7537 62.312L58.7384 62.2295L58.662 62.0385L58.578 61.8445L58.384 61.4671L58.164 61.1004L57.9348 60.7567L57.8217 60.6742L57.7041 60.6069L57.591 60.555L57.4719 60.5183L57.3222 60.335L57.0624 59.9072L56.9494 59.6781L56.8516 59.452L56.7645 59.235L56.708 59.0425L56.6927 58.9508L56.6774 58.8683L56.7615 58.7568L56.8165 58.7003L56.8776 58.6545L56.9448 58.6147L57.0258 58.5796L57.1098 58.546L57.206 58.5368L57.2549 58.5521L57.313 58.5796L57.3787 58.6071V58.6101ZM52.884 49.9476L52.9054 49.937L52.9267 49.9293L52.9573 49.9232H53.0505L53.2033 49.9171L53.3469 49.9263L53.4935 49.9446L53.6494 49.9675L53.9504 50.0363L54.2406 50.1126L54.4927 50.1829L54.728 50.2563L54.9205 50.3143L55.006 50.3388L55.0824 50.354L55.139 50.3693H55.1787L55.1894 50.3617L55.194 50.3433L55.2001 50.3128V50.2028L55.194 50.1539L55.1833 50.1111V50.0592L55.1985 50.0347L55.2291 50.0332L55.2902 50.0347L55.4399 50.0531L55.5805 50.0882L55.7241 50.1463L55.8463 50.2226L55.9838 50.3174L56.103 50.4289L56.2222 50.5511L56.3398 50.6917L56.4437 50.8475L56.546 51.0064L56.6453 51.1851L56.734 51.3685L56.8165 51.5549L56.8974 51.7565L57.0319 52.1767L57.1434 52.6106L57.229 53.0475L57.2687 53.4829L57.3023 53.9107V54.1185L57.2947 54.3171L57.2687 54.5126L57.2427 54.7036L57.2122 54.8763L57.174 55.0443L57.119 55.1971L57.0609 55.3407L56.9937 55.469L56.9127 55.579L56.7447 55.631L56.5949 55.6799L56.4681 55.7226L56.3535 55.7624L56.2573 55.8051L56.1778 55.8357L56.1015 55.8708L56.0358 55.9014V55.9839L56.0434 56.042L56.0648 56.1031L56.077 56.1382L56.103 56.184L56.2176 56.1993L56.3459 56.2268L56.4574 56.2635L56.5033 56.2788L56.5445 56.3017L56.5751 56.3215L56.6056 56.3582L56.6851 56.4453L56.7615 56.5629L56.844 56.7157L56.9204 56.8593L56.9937 57.0197L57.0502 57.1878L57.0884 57.3497L57.0838 57.4063L57.0426 57.4582L56.9769 57.501L56.8898 57.5392L56.7829 57.5697L56.6713 57.5942L56.4269 57.6278L56.3245 57.5911L56.2328 57.5346L56.1565 57.4826L56.0801 57.4246L55.9578 57.2917L55.8448 57.1694L55.7302 57.0533L55.6691 56.9968L55.5958 56.9464L55.5148 56.9128L55.4231 56.8792L55.3223 56.8608L55.2031 56.8501L55.0504 56.8853L54.8945 56.9097L54.8334 56.9128H54.6944L54.6516 56.9051L54.6287 56.8486L54.6195 56.7967L54.6073 56.705L54.6379 56.6179L54.6791 56.5339L54.786 56.4636L54.8899 56.4025L55.0076 56.346L55.1038 56.3002L55.1497 56.2849L55.1772 56.2788L55.2077 56.2635L55.2153 56.2528L55.223 56.2345V56.2039L55.2153 56.1581L55.1848 55.9518L55.1451 55.7563L55.0916 55.5729L55.0335 55.3835L54.9572 55.2154L54.8777 55.0474L54.7891 54.8793L54.6944 54.7204L54.4805 54.4057L54.2467 54.1108L53.9992 53.8206L53.7395 53.5333L53.6433 53.4188L53.5424 53.2965L53.353 53.0414L53.2002 52.8153L53.1467 52.7282L53.1162 52.6595L52.9741 52.0239L52.9222 51.7061L52.8763 51.3853L52.8458 51.0583L52.8305 50.7406L52.8381 50.4136L52.8748 50.0836L52.8855 50.0256L52.8931 49.9904L52.9008 49.9599L52.884 49.9476ZM54.1184 42.2843L54.1123 42.3149L54.094 42.35L54.0603 42.3851L54.0206 42.4157L53.9748 42.431L53.9076 42.4493L53.822 42.457H53.7365L53.683 42.4417L53.6173 42.4203L53.5409 42.3836L53.4645 42.3424L53.3881 42.2935L53.3301 42.2446L53.2842 42.2079L53.2659 42.1774L53.3423 42.1163L53.4263 42.0704L53.5119 42.0399L53.5944 42.02L53.7548 41.9986L53.9076 42.0108L53.9992 42.0597L54.0756 42.1208L54.1154 42.1972L54.1306 42.2339V42.2767L54.1184 42.2843ZM57.1281 42.5624L57.177 42.5288L57.2901 42.4707L57.4062 42.4401L57.5223 42.434L57.6292 42.4447L57.7301 42.4753L57.8004 42.5165L57.8462 42.5624L57.8615 42.6388L57.8538 42.6999L57.8263 42.7457L57.7805 42.787L57.7163 42.8129L57.6399 42.8221L57.5635 42.816L57.4688 42.7931L57.3588 42.7518L57.2626 42.7121L57.1755 42.6617L57.0731 42.6097L57.1235 42.5593L57.1281 42.5624Z" fill="#010F23"/>
<path d="M46.0137 82.393H46.9105V86.8893H48.3542V81.125H46.0137V82.393Z" fill="#010F23"/>
<path fill-rule="evenodd" clip-rule="evenodd" d="M50.183 83.0607C50.183 81.8935 51.0691 80.9218 52.4441 80.9218C53.8191 80.9218 54.6747 81.7927 54.6747 83.0607C54.6747 83.8475 54.2698 84.5396 53.7779 85.2577L52.6626 86.8878H51.0584L52.2424 85.1645L52.0285 85.1568C50.9056 85.0957 50.1952 84.26 50.1952 83.0607H50.183ZM51.6527 83.0531C51.6527 83.5679 51.9888 83.9239 52.4395 83.9239C52.8704 83.9239 53.208 83.6184 53.208 83.0531C53.208 82.5183 52.8459 82.1975 52.4395 82.1975C52.0087 82.1975 51.6527 82.5031 51.6527 83.0531ZM56.1215 83.762V83.7772C55.5211 84.0309 55.1406 84.5625 55.1406 85.305C55.1406 86.2599 55.8694 87.0895 57.3376 87.0895C58.8058 87.0895 59.5177 86.1667 59.5177 85.2561C59.5177 84.5625 59.1816 84.0385 58.5048 83.7941V83.7788C58.9937 83.6016 59.342 83.1371 59.342 82.4954C59.342 81.6918 58.5965 80.9554 57.3376 80.9554C56.0359 80.9554 55.3087 81.6995 55.3087 82.5963C55.3087 83.131 55.5883 83.5435 56.1184 83.7788L56.1215 83.762ZM57.3208 82.089C57.6691 82.089 57.9319 82.3365 57.9319 82.7246C57.9319 83.0882 57.6874 83.3846 57.3208 83.3846C57.0091 83.3846 56.7219 83.1127 56.7219 82.7246C56.7219 82.3365 56.9923 82.089 57.3208 82.089ZM57.3559 84.3716C57.7684 84.3716 58.0663 84.6847 58.0663 85.1477C58.0663 85.5968 57.7715 85.9085 57.3559 85.9085C56.9281 85.9085 56.6272 85.5785 56.6272 85.1477C56.6287 84.6832 56.9404 84.3716 57.3559 84.3716Z" fill="#010F23"/>
<path d="M63.0591 86.8893H61.6169V82.393H60.7186V81.125H63.0591V86.8893Z" fill="#010F23"/>
<path fill-rule="evenodd" clip-rule="evenodd" d="M19.4456 55C19.4456 35.3635 35.365 19.4456 55.0015 19.4456C74.6381 19.4456 90.556 35.3635 90.556 55C90.556 74.6365 74.6381 90.5544 55 90.5544C35.3619 90.5544 19.4456 74.6365 19.4456 55ZM71.4083 31.7885L66.1558 22.0519C63.3152 21.0911 60.3617 20.5036 57.3696 20.3042C58.9649 26.7308 62.7106 32.4183 67.9846 36.4222L71.4068 31.7885H71.4083ZM56.5583 20.2583C56.0392 20.2352 55.5196 20.2235 55 20.2232C54.4788 20.2234 53.9577 20.2351 53.4371 20.2583C51.8375 26.9454 47.9615 32.8778 42.4722 37.0639L43.9893 39.1142C47.2198 36.8633 51.0627 35.6571 55 35.6583C58.9338 35.6527 62.7748 36.8524 66.0061 39.0958L67.5217 37.0486C62.0363 32.8871 58.1617 26.954 56.5568 20.2583H56.5583ZM55 73.5381C65.2361 73.5381 73.5381 65.2392 73.5381 55C73.5381 44.7608 65.2361 36.4635 55 36.4635C44.7639 36.4635 36.4619 44.7639 36.4619 55C36.4644 59.9159 38.4183 64.6297 41.8943 68.1057C45.3703 71.5817 50.0841 73.5356 55 73.5381ZM42.0139 36.4222C47.287 32.4175 51.0324 26.7303 52.6289 20.3042C49.6833 20.5028 46.8233 21.0681 44.1421 21.9542L38.5917 31.7778L42.0139 36.4069V36.4222ZM37.8767 31.4722L43.0299 22.3361C36.9157 24.5774 31.6067 28.4869 27.6528 33.5133L37.8767 31.4722ZM37.9622 32.2483L26.9424 34.4483C25.1854 36.8469 23.7249 39.4778 22.6187 42.2889C29.311 42.7089 35.9422 40.7977 41.3844 36.8806L37.9622 32.2483ZM24.4444 43.1292C23.7417 43.1292 23.0358 43.1032 22.3285 43.0528C22.0031 43.9419 21.7143 44.8464 21.4622 45.7676C27.2892 49.3426 31.6983 54.835 33.9824 61.3021L36.4268 60.474C35.91 58.6956 35.6517 56.852 35.6599 55C35.6599 48.6903 38.6818 43.0833 43.3599 39.5694L41.8321 37.5253C36.7651 41.1662 30.6838 43.1261 24.4444 43.1292ZM21.256 46.5544C20.5807 49.2586 20.2217 52.0896 20.2217 55.0031V55.1818L27.7887 63.386L33.2429 61.5526C31.0631 55.3384 26.835 50.0501 21.2529 46.556L21.256 46.5544ZM27.2678 63.9665L20.2476 56.3551C20.4862 62.765 22.5032 68.982 26.0731 74.3111L27.2678 63.9681V63.9665ZM28.0317 64.1239L26.7422 75.2797C28.4961 77.718 30.5556 79.9028 32.8701 81.8278C35.3146 75.5975 35.5529 68.6889 33.4813 62.2722L28.0194 64.1056L28.0317 64.1239ZM34.2299 62.04C36.3688 68.6935 36.1136 75.8817 33.5011 82.3396C34.2237 82.9084 34.9683 83.4486 35.7332 83.959C41.0167 79.4897 47.6907 76.998 54.6104 76.9114V74.3386C46.2718 74.1736 39.2257 68.7317 36.6789 61.1997L34.2314 62.0247L34.2299 62.04ZM64.3194 88.5164L65.4424 88.1849C68.3375 87.2758 71.0646 85.9971 73.5778 84.4067C68.475 80.1533 62.0492 77.7807 55.385 77.6921H54.6211C47.9554 77.7807 41.5281 80.1365 36.4406 84.4051C38.8857 85.9551 41.5157 87.1921 44.2689 88.0871L45.3994 88.4339C48.455 89.3124 51.6832 89.7829 55.0244 89.7829C58.1748 89.7842 61.3108 89.3587 64.3469 88.5179L64.3194 88.5164ZM55.3865 76.9129C62.3054 77.0007 68.9782 79.4928 74.2607 83.9621C75.027 83.451 75.7731 82.9102 76.4974 82.3411C73.8838 75.8695 73.6253 68.6857 75.7671 62.0431L73.3196 61.2181C70.7682 68.7347 63.7251 74.1736 55.3865 74.3386L55.3881 76.9114L55.3865 76.9129ZM76.5035 62.2921C74.4461 68.6818 74.6669 75.5871 77.1283 81.8324C79.3582 79.9907 81.3509 77.8795 83.0607 75.5471L81.9607 64.1269L76.5065 62.2936L76.5035 62.2921ZM82.7261 63.9787L83.7497 74.5754C87.259 69.4268 89.4239 63.2882 89.734 56.6638L82.7261 63.9787ZM89.7539 55.4996L89.7569 55.0046C89.7588 52.1573 89.4119 49.3205 88.7242 46.5575C83.1413 50.0507 78.9129 55.3393 76.7342 61.5542L82.1944 63.3906L89.7524 55.5011L89.7539 55.4996ZM75.9962 61.3051C78.265 54.8381 82.6879 49.3487 88.5179 45.7707C88.2643 44.8494 87.974 43.9435 87.6471 43.0543C86.9419 43.1056 86.2351 43.1316 85.528 43.1322C79.2823 43.1291 73.1953 41.164 68.1267 37.5146L66.6172 39.5572C69.0148 41.3554 70.9609 43.6869 72.3016 46.3672C73.6423 49.0475 74.3407 52.0031 74.3417 55C74.3417 56.9006 74.0667 58.7369 73.5549 60.4725L75.9993 61.3006L75.9962 61.3051ZM68.5896 36.8867C74.0437 40.8069 80.6804 42.7182 87.3614 42.295C86.2981 39.5878 84.9047 37.0471 83.2318 34.7218L72.0118 32.2774L68.5896 36.9065V36.8867ZM67.2146 22.4492L72.1035 31.4844L82.5183 33.77C78.5688 28.6522 73.2746 24.7328 67.2268 22.4492H67.2146ZM55 0C24.6247 0 0 24.6247 0 55C0 85.3753 24.6247 110 55 110C85.3753 110 110 85.3753 110 55C110 24.6247 85.3753 0 55 0ZM55 109.542C24.8676 109.542 0.458333 85.1324 0.458333 55C0.458333 24.8676 24.8676 0.458333 55 0.458333C85.1324 0.458333 109.542 24.8676 109.542 55C109.542 85.1324 85.1324 109.542 55 109.542Z" fill="#010F23"/>
<path d="M70.4909 13.9136C70.6528 13.5057 70.4756 13.1451 70.0234 12.9618L69.6628 12.8182L69.125 14.1702L69.4856 14.3139C69.9317 14.4926 70.3106 14.3689 70.4893 13.9166L70.4909 13.9136ZM46.4711 12.6257C46.9295 12.5294 47.1923 12.2208 47.0945 11.7396C47.0059 11.3087 46.6636 11.1009 46.1839 11.1987L45.802 11.2751L46.0892 12.7005L46.4711 12.6241V12.6257ZM25.1861 23.8273C25.8064 23.2193 25.7514 22.2323 25.0792 21.5448C24.4192 20.8665 23.4689 20.7321 22.812 21.3737C22.1978 21.9772 22.2314 22.9702 22.9128 23.6654C23.5942 24.3605 24.5704 24.4293 25.2045 23.8289L25.1861 23.8273ZM16.6413 32.7496C16.8827 32.3218 17.2616 32.1996 17.645 32.4134C18.0728 32.6548 18.1431 33.0444 17.9048 33.4646L17.7153 33.8007L16.4473 33.0857L16.6398 32.7496H16.6413ZM12.0457 65.4929C11.317 65.7159 11.0129 66.3072 11.2146 66.9596L13.5674 66.2339C13.3841 65.6441 12.7959 65.2591 12.0457 65.4929ZM11.6638 68.4064C11.867 69.0602 12.4399 69.3796 13.1916 69.1519C13.9432 68.9243 14.2106 68.2704 14.0318 67.6807L11.6791 68.4064H11.6638ZM44.951 97.7779L44.9923 97.7855L44.9953 97.8971L45.0029 98.1384L45.0381 98.5128L45.171 99.8007L43.9488 99.5455L44.5904 98.4303L44.8593 97.9322L44.8746 97.9062L44.8792 97.9001L44.9403 97.7779H44.951ZM65.7288 97.5854V97.4021L65.7685 97.3929L65.8266 97.4998L65.8311 97.5075L65.8403 97.5258L65.8632 97.564L66.1352 98.0193L66.8349 99.1116L65.6402 99.4233L65.7135 98.14L65.7288 97.5823V97.5854ZM96.4677 68.634C96.3042 69.0954 95.9559 69.2864 95.5403 69.1428C95.0759 68.9839 94.9368 68.6126 95.082 68.1573L95.2073 67.7907L96.5822 68.2689L96.4539 68.6355L96.4677 68.634Z" fill="#0D3774"/>
<path fill-rule="evenodd" clip-rule="evenodd" d="M54.9993 2.93344C26.2435 2.93344 2.93263 26.2443 2.93263 55.0001C2.93263 83.7559 26.2435 107.067 54.9993 107.067C83.7551 107.067 107.066 83.7559 107.066 55.0001C107.066 26.2443 83.7551 2.93344 54.9993 2.93344ZM101.546 46.5118L95.9147 47.7569L95.6 46.3361L99.9664 45.3705L99.6242 43.8244L96.8955 44.2033C95.6504 44.3714 95.0362 44.0964 94.7918 42.9902C94.7383 42.758 94.7231 42.5273 94.7383 42.3608L95.9529 42.0904C95.9422 42.1622 95.9483 42.3089 95.9728 42.4234C96.0385 42.7137 96.1592 42.8405 96.5808 42.7825L100.594 42.2172L101.545 46.5102L101.546 46.5118ZM95.0882 29.3945L95.8215 30.7161L93.6337 31.9276L96.8146 32.5051L97.6976 34.1032L94.0615 33.2843L92.6819 36.9448L91.7653 35.2948L92.9661 32.2943L90.7783 33.5058L90.045 32.1812L95.0897 29.3915L95.0882 29.3945ZM84.6871 15.2932L85.3685 15.8462C85.231 16.054 85.3135 16.3137 85.5762 16.5276C85.839 16.7415 86.114 16.7797 86.2851 16.5933L86.9665 17.1494C86.4119 17.7651 85.619 17.7086 85.0155 17.2166C84.3204 16.6514 84.2211 15.9364 84.6871 15.2916V15.2932ZM82.8339 16.1487L83.9614 17.0654L82.2808 19.1309C82.1357 19.3082 81.8485 19.6504 81.6743 19.8337L81.6957 19.849C81.9615 19.7069 82.2381 19.5694 83.0249 19.2684L85.4922 18.3136L86.5678 19.1875L82.9317 23.6593L81.8042 22.7426L83.3869 20.7947C83.5339 20.6211 83.6831 20.4495 83.8346 20.2798L84.0637 20.0201L84.0393 19.9987C83.7123 20.1591 83.4236 20.2707 82.3587 20.6801L80.2611 21.4898L79.1917 20.619L82.8308 16.1487H82.8339ZM75.3417 11.6082L73.2104 16.9646L71.8049 16.4039L73.9361 11.0505L75.3417 11.6097V11.6082ZM69.449 9.25844L70.8546 9.81761L70.0601 11.8114L70.6315 12.0405C71.9149 12.5523 72.3121 13.4858 71.9026 14.4743C71.4947 15.4948 70.4512 15.86 69.2703 15.3909L67.3147 14.6148L69.446 9.25844H69.449ZM56.0779 7.04316L57.5858 7.1608L57.4224 9.29969L59.2099 9.43719L59.3733 7.2983L60.8797 7.41288L60.4428 13.1604L58.9349 13.0443L59.1106 10.7282L57.3231 10.5907L57.1474 12.9068L55.6394 12.7922L56.0764 7.04316H56.0779ZM45.1635 8.10955L45.5882 10.2133L46.1932 10.0911C47.5422 9.81608 48.3749 10.3905 48.5842 11.4355C48.8042 12.5126 48.1258 13.3911 46.8837 13.6416L44.8212 14.0587L43.68 8.40594L45.1619 8.10802L45.1635 8.10955ZM35.4896 11.2232L38.1418 16.3382L36.8524 17.0073L34.7929 13.0397L33.3904 13.7669L34.4599 16.303C34.9457 17.4595 34.8342 18.1272 33.8289 18.6482C33.6196 18.7551 33.4011 18.8315 33.233 18.8621L32.6617 17.759C32.735 17.7514 32.8725 17.7071 32.9764 17.6521C33.2392 17.5146 33.3308 17.3465 33.1658 16.9737L31.5846 13.2459L35.4865 11.2232H35.4896ZM21.8664 20.3959C23.2292 19.0668 25.064 19.3265 26.1808 20.4693C27.3511 21.6655 27.3939 23.5707 26.1442 24.7929C24.6271 26.2748 22.8044 25.7523 21.8129 24.7379C20.6671 23.5661 20.5876 21.6457 21.8664 20.3929V20.3959ZM14.6324 29.7307L15.7522 30.3616L14.7561 32.1277L15.5047 32.5509L15.8072 32.0162C16.484 30.8139 17.4618 30.5602 18.3892 31.0996C19.3455 31.6389 19.5655 32.7266 18.9453 33.8312L17.911 35.6645L12.8937 32.8168L14.6354 29.7307H14.6324ZM9.8611 40.2723L11.1139 40.6008L10.7869 41.8505L15.1105 42.9841L14.7286 44.4554L10.405 43.3218L10.0765 44.5715L8.8268 44.243L9.86569 40.2708L9.8611 40.2723ZM7.7986 55.4187L9.66249 54.4455C9.8654 54.3414 10.0734 54.2476 10.2858 54.1644V54.1491C10.1602 54.1168 10.0362 54.0781 9.91458 54.033C9.83265 54.0021 9.75116 53.97 9.67013 53.9368L7.79097 53.1698L7.78791 51.5809L12.1955 53.6205C13.158 54.0666 13.6255 54.6319 13.6271 55.408C13.6193 55.6349 13.5823 55.8598 13.5171 56.0772H12.2765C12.3167 55.9279 12.3413 55.7748 12.3499 55.6204C12.3499 55.3179 12.2735 55.1575 11.8701 54.9375L11.7174 54.8611L7.80013 57.0458L7.7986 55.4157V55.4187ZM13.6194 70.617C12.2704 71.0341 11.1047 70.2962 10.5639 68.7486L10.0292 68.9136L9.58305 67.4668L10.1178 67.3018C9.70527 65.6777 10.2293 64.454 11.5844 64.0323C12.9243 63.6168 14.09 64.3196 14.6629 65.8962L15.2465 65.7175L15.6926 67.1612L15.109 67.3415C15.5276 68.9762 14.9501 70.2045 13.6179 70.6155L13.6194 70.617ZM25.6858 92.7927L24.7432 92.6552L24.9418 90.5271L26.934 89.754L27.3282 90.6248L25.9486 91.2864L25.6889 92.7943L25.6858 92.7927ZM27.4305 92.4047L27.1678 93.9141L26.2267 93.7736L26.4253 91.65L28.419 90.8769L28.8101 91.7447L27.4321 92.4062L27.4305 92.4047ZM36.7347 99.7579L35.0175 98.9833L34.1818 95.8636L33.1521 98.143L31.7725 97.5197L34.1436 92.2687L35.5217 92.889L34.495 95.1684L37.3871 93.7293L39.0676 94.4809L35.6653 95.9965L36.7347 99.7579ZM45.4033 102.076L45.278 100.853L43.4447 100.467L42.8428 101.524L41.3792 101.218L44.6975 96.0271L46.0954 96.3219L46.8944 102.377L45.4049 102.062L45.4033 102.076ZM57.2528 102.87L56.9396 100.235L56.8357 99.2568L56.7685 99.2598L56.7501 99.3316L56.7196 99.463L56.6661 99.7075L56.5851 100.092C56.5653 100.189 56.5454 100.28 56.524 100.367L55.9068 102.891L54.9107 102.907L54.1835 100.401C54.0918 100.088 53.9849 99.7182 53.9085 99.3057H53.8244L53.8168 99.5807L53.7985 99.9427L53.7771 100.253L53.7649 100.39L53.551 102.93L52.2172 102.952L52.8039 97.1744L54.4279 97.1439L55.0726 99.2675L55.149 99.5012L55.1719 99.5746C55.2532 99.8202 55.3286 100.068 55.3981 100.317H55.424L55.5676 99.7609L55.5905 99.6815L55.7021 99.2537L56.2429 97.1148L57.8578 97.0873L58.7087 102.839L57.2543 102.864L57.2528 102.87ZM68.0511 101.034L67.3987 100.01L65.5853 100.487L65.5196 101.7L64.0682 102.082L64.7175 95.9522L66.0986 95.5901L69.5208 100.647L68.048 101.034H68.0511ZM76.4799 97.7489C75.2149 98.4333 74.1806 97.9964 73.6275 97.0843L74.9628 96.3586C75.1721 96.6886 75.5128 96.8964 75.91 96.6825C76.2736 96.4839 76.3897 96.1141 76.1606 95.6894C75.9467 95.2968 75.5464 95.1761 75.085 95.4266L74.7306 95.6207L74.1912 94.6322L74.5274 94.4519C74.8894 94.2533 75.0117 93.9478 74.8253 93.6055C74.7092 93.3916 74.4128 93.2725 74.1317 93.4253C73.7528 93.6315 73.849 94.0012 73.9728 94.2304L72.6375 94.9576C72.1517 93.9034 72.5611 92.9027 73.5542 92.3711C74.7428 91.7248 75.6518 91.9433 76.0933 92.7622C76.3729 93.274 76.2262 93.8729 75.9054 94.2396L75.9207 94.2609C76.5654 94.1036 77.1888 94.3893 77.5432 95.0355C78.0687 96.0011 77.6929 97.098 76.4982 97.7473L76.4799 97.7489ZM82.4382 92.7072L82.041 91.2283L80.6079 90.6936L80.9196 89.7769L82.9729 90.3651L83.3656 92.4658L82.4412 92.6904L82.4382 92.7072ZM83.8101 91.4544L83.4129 89.977L81.9768 89.4423L82.29 88.5257L84.3433 89.1123L84.736 91.213L83.8086 91.4391L83.8101 91.4544ZM54.9993 92.9883C44.9248 92.9863 35.2636 88.9833 28.1398 81.8596C21.0161 74.7359 17.0131 65.0746 17.0111 55.0001C17.0127 44.9254 21.0155 35.2637 28.1393 28.1396C35.2631 21.0156 44.9246 17.0124 54.9993 17.0104C75.9787 17.0104 92.989 34.0191 92.989 55.0001C92.989 75.9811 75.9787 92.9883 54.9993 92.9883ZM98.9779 71.2373L97.7649 70.8157L98.4294 68.9014L97.6151 68.6187L97.4135 69.1993C96.9613 70.4979 96.0461 70.9257 95.0393 70.5743C94.0035 70.2152 93.5879 69.187 94.005 67.9893L94.6925 66.0032L100.136 67.89L98.9748 71.2358L98.9779 71.2373ZM100.093 57.6401L101.908 58.5507L101.786 60.135L97.5494 57.7608C96.6236 57.2414 96.2019 56.6409 96.26 55.8664C96.2753 55.6571 96.3578 55.3652 96.4204 55.2094L97.6579 55.3041C97.6274 55.3698 97.5571 55.6341 97.5479 55.7533C97.525 56.0589 97.5876 56.2223 97.9757 56.4714L98.1224 56.5584L102.198 54.6823L102.076 56.3094L100.139 57.1344C99.9281 57.222 99.7129 57.299 99.4943 57.3651V57.3834C99.6946 57.4529 99.8896 57.5366 100.078 57.634L100.093 57.6401Z" fill="#0D3774"/>
<path d="M54.8502 34.7646C51.038 34.7576 47.3018 35.8297 44.0733 37.8568L43.6669 37.3068C48.7314 33.2048 52.3828 27.5703 54.0512 21.2835C54.5889 21.2713 55.1206 21.2713 55.6401 21.2835C57.3206 27.5881 60.9561 33.1978 66.0244 37.3068L65.6195 37.8568C62.3913 35.8325 58.688 34.7661 54.8487 34.7661L54.8502 34.7646ZM34.4208 60.1548L35.1189 59.9195C34.7313 58.3348 34.5354 56.7093 34.5353 55.078C34.5353 51.836 35.2763 48.7377 36.7384 45.87C37.9851 43.421 39.7481 41.2195 41.8671 39.4534L41.4776 38.9248C39.0805 40.5387 36.4684 41.8075 33.718 42.6938C30.6735 43.6769 27.4939 44.1774 24.2946 44.1773C23.8363 44.1773 23.3398 44.165 22.8524 44.1421L22.4476 45.4102C27.8889 48.9444 32.0779 54.1036 34.4192 60.1548H34.4208ZM75.9763 42.6953C73.2259 41.8088 70.6138 40.5401 68.2167 38.9263L67.8287 39.4534C69.9492 41.218 71.7123 43.4195 72.962 45.87C74.4191 48.7206 75.1739 51.8781 75.1635 55.0795C75.1641 56.7113 74.9687 58.3373 74.5815 59.9225L75.2812 60.1578C77.6215 54.1069 81.8101 48.948 87.2513 45.4148C87.1245 44.987 86.9885 44.5653 86.8465 44.1467C86.3645 44.17 85.8821 44.1818 85.3996 44.1818C82.2004 44.1817 79.0209 43.6812 75.9763 42.6984V42.6953ZM35.9394 62.5167C37.3144 66.0505 39.6671 69.1045 42.7426 71.3778C45.866 73.7072 49.5977 75.0811 53.4859 75.3332V76.0284C46.9378 76.3339 40.6189 78.702 35.5269 82.8056C35.1862 82.5688 34.8516 82.3244 34.5216 82.0769C36.8487 75.8751 37.1166 69.0888 35.2855 62.723L35.9394 62.503V62.5167ZM74.4134 62.7367L73.7595 62.5167C72.3845 66.0505 70.0317 69.1045 66.9563 71.3778C63.806 73.7184 60.1119 75.075 56.2114 75.3317V76.0284C62.7659 76.3207 69.0564 78.6953 74.1689 82.8071L74.6273 82.4832L75.1773 82.0753C72.8505 75.8741 72.5827 69.0883 74.4134 62.723V62.7367Z" fill="#CD0909"/>
</svg>
